# xmcd
#
# Track frame offsets:
#	150
#	22992
#	24640
#	26090
#	27505
#	28792
#	29997
#	32672
#	36322
#	38557
#	40812
#	50870
#	61620
#	71795
#	81615
#	92152
#	103270
#	113760
#	123992
#	133287
#	143832
#	164815
#	168617
#	173655
#	179587
#	185545
#	189915
#	195690
#	201462
#	207060
#	215977
#	223792
#	228272
#	235190
#	239950
#	244757
#	248925
#	253997
#	258330
#	262822
#	266967
#	271735
#	278395
#	283625
#	289682
#	295235
#
# Disc length: 3995 seconds
#
# Revision: 1
# Processed by: cddbd v1.5.1PL0 Copyright (c) Steve Scherf et al.
# Submitted via: CDex 1.50Beta5
#
DISCID=db0f992e
DTITLE=沢井なつ美 - 真・魔装機神 PANZER WARFARE オリジナルサウンドトラック
DYEAR=2000
DGENRE=Game
TTITLE0=沢井なつ美/Stay with me〜オープニングテーマ
TTITLE1=リバース
TTITLE2=エン・カウンター
TTITLE3=グランヴェール
TTITLE4=ザムジード
TTITLE5=ガッテス
TTITLE6=アグ・ゲブラ
TTITLE7=イズラフェール
TTITLE8=クラウドランド
TTITLE9=ボーン・アゲイン・リプライズ
TTITLE10=タイトルバック
TTITLE11=バトルフィールド1
TTITLE12=シーン
TTITLE13=アクション
TTITLE14=アウトサイド
TTITLE15=クライシス
TTITLE16=サイバスター
TTITLE17=オーバー
TTITLE18=ダウス
TTITLE19=バトルフィールド9
TTITLE20=沢井なつ美/Born Again〜エンディングテーマ
TTITLE21=ケイゴ
TTITLE22=プレッシャー
TTITLE23=バトルフィールド2
TTITLE24=アルマ
TTITLE25=トト
TTITLE26=ステージ
TTITLE27=キャッスル
TTITLE28=オフェンシブ
TTITLE29=バトルフィールド3
TTITLE30=ソッド
TTITLE31=バトルフィールド4
TTITLE32=ラガーシュ
TTITLE33=インターミッション
TTITLE34=バトルフィールド5
TTITLE35=ダーク
TTITLE36=オペレーション
TTITLE37=バトルフィールド6
TTITLE38=バトルフィールド7
TTITLE39=レコード
TTITLE40=バトルフィールド8
TTITLE41=ファイナル
TTITLE42=ステイ・ウイズ・ミー・リプライズ1
TTITLE43=ステイ・ウイズ・ミー・リプライズ2
TTITLE44=イエン
TTITLE45=プロローグ
EXTD=
EXTT0=
EXTT1=
EXTT2=
EXTT3=
EXTT4=
EXTT5=
EXTT6=
EXTT7=
EXTT8=
EXTT9=
EXTT10=
EXTT11=
EXTT12=
EXTT13=
EXTT14=
EXTT15=
EXTT16=
EXTT17=
EXTT18=
EXTT19=
EXTT20=
EXTT21=
EXTT22=
EXTT23=
EXTT24=
EXTT25=
EXTT26=
EXTT27=
EXTT28=
EXTT29=
EXTT30=
EXTT31=
EXTT32=
EXTT33=
EXTT34=
EXTT35=
EXTT36=
EXTT37=
EXTT38=
EXTT39=
EXTT40=
EXTT41=
EXTT42=
EXTT43=
EXTT44=
EXTT45=
PLAYORDER=
